<?xml version="1.0" encoding="utf-8"?>
<!-- Generator: Adobe Illustrator 23.0.6, SVG Export Plug-In . SVG Version: 6.00 Build 0)  -->
<svg version="1.1" xmlns="http://www.w3.org/2000/svg" xmlns:xlink="http://www.w3.org/1999/xlink" x="0px" y="0px"
	 viewBox="0 0 100 33.86" style="enable-background:new 0 0 100 33.86;" xml:space="preserve">
<style type="text/css">
	.st0{fill:#FF0000;}
	.st1{fill:#FFFFFF;}
</style>
<g id="Camada_1">
</g>
<g id="Camada_2">
</g>
<g id="Camada_3">
</g>
<g id="Camada_4">
	<rect x="0" y="0" class="st0" width="100" height="33.86"/>
	<path class="st1" d="M0,28.08h7.17v0.87H0V28.08L0,28.08z M0,22.4h7.17v0.87H0V22.4L0,22.4z M0,16.45h7.17v0.87H0V16.45L0,16.45z
		 M0,10.59h7.17v0.87H0V10.59L0,10.59z M0,4.9h7.17v0.87H0V4.9z"/>
	<path class="st1" d="M92.91,28.08H100v0.87h-7.09V28.08L92.91,28.08z M92.91,22.4H100v0.87h-7.09V22.4L92.91,22.4z M92.91,16.45
		H100v0.87h-7.09V16.45L92.91,16.45z M92.91,10.59H100v0.87h-7.09V10.59L92.91,10.59z M92.91,4.9H100v0.87h-7.09V4.9z"/>
	<g>
		<polygon class="st1" points="54.86,9.45 55.47,6.47 55.82,4.9 55.47,4.9 37.88,4.9 32.81,28.61 50.83,28.61 51.88,23.97 
			40.33,23.97 41.47,18.99 51.97,18.99 52.84,14.35 42.43,14.35 43.48,9.45 		"/>
		<path class="st1" d="M23.97,4.37c-4.99,0-10.24,1.57-11.64,7.17c-0.61,2.54,0.17,4.72,2.27,5.77c4.72,2.27,9.71,1.57,9.01,4.81
			c-0.35,1.57-2.45,2.36-3.94,2.36c-2.36,0-3.76-1.22-3.24-3.5H9.89c-1.22,6.47,3.24,8.05,8.75,8.05c5.51,0,10.94-2.36,11.99-7.35
			c1.31-6.39-4.37-6.74-8.14-7.79c-1.57-0.44-3.59-1.05-3.24-2.8c0.26-1.14,1.84-2.1,3.32-2.1c1.14,0,1.92,0.26,2.36,0.7
			c0.44,0.52,0.61,1.22,0.44,2.1h6.56C33.51,6.12,28.87,4.37,23.97,4.37z"/>
		<path class="st1" d="M69.47,4.37c-4.99,0-10.24,1.57-11.72,7.17c-0.52,2.54,0.17,4.72,2.36,5.77c4.72,2.27,9.71,1.57,9.01,4.81
			c-0.35,1.57-2.45,2.36-3.94,2.36c-2.36,0-3.76-1.22-3.24-3.5h-6.47h-0.09c-0.35,1.75-0.26,3.06,0.09,4.2
			c1.05,2.97,4.64,3.85,8.66,3.85c5.51,0,10.94-2.36,11.99-7.35c1.31-6.39-4.37-6.74-8.14-7.79c-1.57-0.44-3.59-1.05-3.24-2.8
			c0.26-1.14,1.75-2.1,3.32-2.1c1.05,0,1.92,0.26,2.36,0.7c0.44,0.52,0.61,1.22,0.35,2.1h6.56C79,6.12,74.37,4.37,69.47,4.37z"/>
		<polygon class="st1" points="83.29,4.9 78.22,28.61 84.78,28.61 89.85,4.9 		"/>
	</g>
</g>
</svg>
