<svg xmlns="http://www.w3.org/2000/svg" width="323.242" height="60" viewBox="0 0 323.242 60">
  <g id="Logo-SESI-SP" transform="translate(-9.6)">
    <path id="Caminho_1" data-name="Caminho 1" d="M156.189,10H9.6V57.368H156.189Z" transform="translate(0 -3.684)" fill="#e40520"/>
    <path id="Caminho_2" data-name="Caminho 2" d="M9.6,51.237h9.979V52.5H9.6V51.237Zm0-7.958h9.979v1.263H9.6V43.279Zm0-8.274h9.979v1.263H9.6V35.005Zm0-8.147h9.979v1.263H9.6V26.858Zm0-7.958h9.979v1.263H9.6V18.9Z" transform="translate(0 -6.963)" fill="#fff"/>
    <path id="Caminho_3" data-name="Caminho 3" d="M226,53.237h9.979V54.5H226V53.237Zm0-7.958h9.979v1.263H226V45.279Zm0-8.274h9.979v1.263H226V37.005Zm0-8.147h9.979v1.263H226V28.858Zm0-7.958h9.979v1.263H226V20.9Z" transform="translate(-79.726 -7.7)" fill="#fff"/>
    <path id="Caminho_4" data-name="Caminho 4" d="M64.055,30.816c2.4-8.526-4.547-11.116-11.811-11.116-7.389,0-15.221,2.274-17.368,10.674-.821,3.789.253,7.074,3.474,8.589C45.3,42.311,52.749,41.3,51.739,46.1c-.505,2.337-3.6,3.537-5.874,3.537-3.537,0-5.558-1.832-4.8-5.116H31.213c-1.895,9.6,4.863,12,13.074,12,8.147,0,16.232-3.537,17.811-10.989,2.021-9.537-6.442-10.105-12.063-11.621-2.463-.695-5.368-1.516-4.863-4.105.379-1.768,2.653-3.221,4.863-3.221a4.662,4.662,0,0,1,3.537,1.137,3.284,3.284,0,0,1,.632,3.158l9.853-.063ZM92.349,55.763,93.8,48.942H76.686l1.579-7.516H93.992l1.453-6.821H79.718L81.3,27.342H98.413l1.453-6.821H72.96L65.444,55.763Zm39.663-24.947c2.4-8.526-4.547-11.116-11.811-11.116-7.389,0-15.221,2.274-17.368,10.674-.821,3.789.253,7.074,3.474,8.589,6.947,3.347,14.4,2.337,13.389,7.137-.505,2.337-3.6,3.537-5.874,3.537-3.537,0-5.558-1.832-4.8-5.116H99.17c-1.895,9.6,4.863,12,13.074,12,8.147,0,16.232-3.537,17.811-10.989,2.021-9.537-6.442-10.105-12.063-11.621-2.463-.695-5.368-1.516-4.863-4.105.379-1.768,2.653-3.221,4.863-3.221a4.662,4.662,0,0,1,3.537,1.137,3.284,3.284,0,0,1,.632,3.158l9.853-.063Zm11.053,24.947,7.516-35.305h-9.789l-7.516,35.305Z" transform="translate(-7.844 -7.258)" fill="#fff"/>
    <g id="Grupo_1" data-name="Grupo 1" transform="translate(182.716 13.2)">
      <path id="Caminho_5" data-name="Caminho 5" d="M283.7,31.737l.884-1.011a5.978,5.978,0,0,0,4.232,1.768c1.642,0,2.779-.884,2.779-2.084v-.063c0-1.137-.632-1.832-3.221-2.337-2.842-.632-4.168-1.516-4.168-3.6v-.063c0-1.958,1.705-3.347,4.042-3.347a6.426,6.426,0,0,1,4.358,1.516l-.821,1.074a5.315,5.315,0,0,0-3.6-1.326c-1.579,0-2.653.884-2.653,2.021v.063c0,1.137.632,1.832,3.347,2.4,2.779.632,4.042,1.579,4.042,3.474v.063c0,2.147-1.768,3.474-4.232,3.474A7.6,7.6,0,0,1,283.7,31.737Z" transform="translate(-283.7 -20.937)" fill="#706f6f"/>
      <path id="Caminho_6" data-name="Caminho 6" d="M302.4,21.3h8.968v1.263h-7.579v4.232h6.758v1.263h-6.758v4.358h7.642v1.263H302.4V21.3Z" transform="translate(-290.589 -21.047)" fill="#706f6f"/>
      <path id="Caminho_7" data-name="Caminho 7" d="M320.563,21.3h5.305a4.834,4.834,0,0,1,3.537,1.263,3.332,3.332,0,0,1,.947,2.463v.063a3.59,3.59,0,0,1-3.347,3.6l3.789,5.053h-1.768l-3.6-4.8h-3.537v4.8H320.5V21.3Zm5.179,6.253c1.832,0,3.158-.947,3.158-2.526v-.063c0-1.516-1.137-2.463-3.158-2.463h-3.789v5.053Z" transform="translate(-297.258 -21.047)" fill="#706f6f"/>
      <path id="Caminho_8" data-name="Caminho 8" d="M338,21.3h1.579L344,31.974,348.421,21.3h1.516l-5.368,12.442h-1.263Z" transform="translate(-303.705 -21.047)" fill="#706f6f"/>
      <path id="Caminho_9" data-name="Caminho 9" d="M360.3,21.3h1.389V33.679H360.3Z" transform="translate(-311.921 -21.047)" fill="#706f6f"/>
      <path id="Caminho_10" data-name="Caminho 10" d="M370.879,35.616l1.389-1.958a6.145,6.145,0,0,1-5.368-6.316v-.063a6.215,6.215,0,0,1,6.253-6.379,6.379,6.379,0,0,1,4.8,1.958l-.947,1.011a5.375,5.375,0,0,0-3.916-1.705,4.858,4.858,0,0,0-4.8,5.053v.063a4.914,4.914,0,0,0,4.8,5.116,5.215,5.215,0,0,0,3.979-1.768l.947.884a6.414,6.414,0,0,1-4.674,2.147l-1.137,2.526Z" transform="translate(-314.353 -20.9)" fill="#706f6f"/>
      <path id="Caminho_11" data-name="Caminho 11" d="M386.4,27.342h0a6.317,6.317,0,1,1,12.632-.063v.063a6.316,6.316,0,1,1-12.632,0Zm11.179,0h0a4.868,4.868,0,1,0-9.726-.063v.063a4.869,4.869,0,1,0,9.726,0Z" transform="translate(-321.537 -20.9)" fill="#706f6f"/>
      <path id="Caminho_12" data-name="Caminho 12" d="M417,31.737l.884-1.011a5.978,5.978,0,0,0,4.232,1.768c1.642,0,2.779-.884,2.779-2.084v-.063c0-1.137-.632-1.832-3.221-2.337-2.842-.632-4.168-1.516-4.168-3.6v-.063c0-1.958,1.705-3.347,4.042-3.347a6.426,6.426,0,0,1,4.358,1.516l-.821,1.074a5.315,5.315,0,0,0-3.6-1.326c-1.579,0-2.653.884-2.653,2.021v.063c0,1.137.632,1.832,3.347,2.4,2.779.632,4.042,1.579,4.042,3.474v.063c0,2.147-1.768,3.474-4.232,3.474A7.6,7.6,0,0,1,417,31.737Z" transform="translate(-332.811 -20.937)" fill="#706f6f"/>
      <path id="Caminho_13" data-name="Caminho 13" d="M434.8,27.342h0a6.317,6.317,0,1,1,12.632-.063v.063a6.316,6.316,0,1,1-12.632,0Zm11.179,0h0a4.868,4.868,0,1,0-9.726-.063v.063a4.869,4.869,0,1,0,9.726,0Z" transform="translate(-339.368 -20.9)" fill="#706f6f"/>
      <path id="Caminho_14" data-name="Caminho 14" d="M458.1,27.342h0a6.231,6.231,0,0,1,6.253-6.442,6.379,6.379,0,0,1,4.8,1.958l-.947,1.011a5.375,5.375,0,0,0-3.916-1.705,4.858,4.858,0,0,0-4.8,5.053v.063a4.914,4.914,0,0,0,4.8,5.116,5.215,5.215,0,0,0,3.979-1.768l.947.884a6.325,6.325,0,0,1-4.926,2.147A6.075,6.075,0,0,1,458.1,27.342Z" transform="translate(-347.953 -20.9)" fill="#706f6f"/>
      <path id="Caminho_15" data-name="Caminho 15" d="M479.2,21.3h1.389V33.679H479.2Z" transform="translate(-355.726 -21.047)" fill="#706f6f"/>
      <path id="Caminho_16" data-name="Caminho 16" d="M490.584,21.1h1.326l5.621,12.442h-1.516l-1.453-3.284h-6.758l-1.453,3.284H484.9Zm3.411,7.958-2.842-6.316-2.842,6.316Z" transform="translate(-357.826 -20.974)" fill="#706f6f"/>
      <path id="Caminho_17" data-name="Caminho 17" d="M508.2,21.3h1.389V32.416h6.947v1.263H508.2Z" transform="translate(-366.411 -21.047)" fill="#706f6f"/>
      <path id="Caminho_18" data-name="Caminho 18" d="M285,51.3h4.295c3.916,0,6.568,2.653,6.568,6.126v.063a6.216,6.216,0,0,1-6.568,6.189H285Zm4.295,11.053a4.779,4.779,0,0,0,5.116-4.863v-.063a4.863,4.863,0,0,0-5.116-4.926h-2.905v9.789l2.905.063Z" transform="translate(-284.179 -32.1)" fill="#706f6f"/>
      <path id="Caminho_19" data-name="Caminho 19" d="M309.021,51.1h1.326l5.621,12.442h-1.516L313,60.258h-6.695l-1.453,3.284H303.4Zm3.474,7.958-2.842-6.316-2.842,6.316Z" transform="translate(-290.958 -32.026)" fill="#706f6f"/>
      <path id="Caminho_20" data-name="Caminho 20" d="M334.6,51.3h1.389V63.679H334.6Z" transform="translate(-302.453 -32.1)" fill="#706f6f"/>
      <path id="Caminho_21" data-name="Caminho 21" d="M342,51.3h1.326l7.768,9.916V51.3h1.389V63.679h-1.137l-8.021-10.168V63.679H342Z" transform="translate(-305.179 -32.1)" fill="#706f6f"/>
      <path id="Caminho_22" data-name="Caminho 22" d="M363.6,51.3h4.295c3.916,0,6.568,2.653,6.568,6.126v.063a6.216,6.216,0,0,1-6.568,6.189H363.6Zm4.295,11.053a4.779,4.779,0,0,0,5.116-4.863v-.063a4.864,4.864,0,0,0-5.116-4.926h-2.905v9.789l2.905.063Z" transform="translate(-313.137 -32.1)" fill="#706f6f"/>
      <path id="Caminho_23" data-name="Caminho 23" d="M384.6,56.484V49.347h1.389v7.137c0,2.653,1.389,4.168,3.789,4.168,2.274,0,3.726-1.389,3.726-4.105v-7.2h1.389v7.074c0,3.6-2.084,5.495-5.179,5.495C386.684,61.916,384.6,60.021,384.6,56.484ZM390.979,46l1.389.632-2.021,1.642h-1.137Z" transform="translate(-320.874 -30.147)" fill="#706f6f"/>
      <path id="Caminho_24" data-name="Caminho 24" d="M404.3,61.737l.884-1.011a5.978,5.978,0,0,0,4.232,1.768c1.642,0,2.779-.884,2.779-2.084v-.063c0-1.137-.632-1.832-3.221-2.337-2.842-.632-4.168-1.516-4.168-3.6v-.063c0-1.958,1.705-3.347,4.042-3.347a6.426,6.426,0,0,1,4.358,1.516l-.821,1.074a5.315,5.315,0,0,0-3.6-1.326c-1.579,0-2.653.884-2.653,2.021v.063c0,1.137.632,1.832,3.347,2.4,2.779.632,4.042,1.579,4.042,3.474v.063c0,2.147-1.768,3.474-4.232,3.474A7.6,7.6,0,0,1,404.3,61.737Z" transform="translate(-328.132 -31.989)" fill="#706f6f"/>
      <path id="Caminho_25" data-name="Caminho 25" d="M425.268,52.563H421.1V51.3h9.726v1.263h-4.105V63.679h-1.39l-.063-11.116Z" transform="translate(-334.321 -32.1)" fill="#706f6f"/>
      <path id="Caminho_26" data-name="Caminho 26" d="M440.1,51.3h5.305a4.834,4.834,0,0,1,3.537,1.263,3.332,3.332,0,0,1,.947,2.463v.063a3.59,3.59,0,0,1-3.347,3.6l3.789,5.053h-1.705l-3.6-4.8h-3.537v4.8H440.1V51.3Zm5.242,6.253c1.832,0,3.158-.947,3.158-2.526v-.063c0-1.516-1.137-2.463-3.158-2.463h-3.789v5.053Z" transform="translate(-341.321 -32.1)" fill="#706f6f"/>
      <path id="Caminho_27" data-name="Caminho 27" d="M460,51.3h1.389V63.679H460Z" transform="translate(-348.653 -32.1)" fill="#706f6f"/>
      <path id="Caminho_28" data-name="Caminho 28" d="M471.384,51.1h1.326l5.621,12.442h-1.516l-1.453-3.284h-6.758l-1.453,3.284H465.7Zm3.411,7.958-2.842-6.316-2.842,6.316Z" transform="translate(-350.753 -32.026)" fill="#706f6f"/>
    </g>
    <rect id="Retângulo_1" data-name="Retângulo 1" width="1.263" height="60" transform="translate(170.589)" fill="#e40520"/>
  </g>
</svg>
